<svg version="1" xmlns="http://www.w3.org/2000/svg" width="933.333" height="933.333" viewBox="0 0 700.000000 700.000000"><path d="M19 321v302H360.7l18.9 28.5 18.9 28.4 140.3.1c120.1 0 140.2-.2 139.5-1.4-.4-.8-64-85.4-141.3-188-77.3-102.7-140.6-187-140.7-187.4-.2-.4 46.8-63.3 104.3-139.7C558.1 87 606.1 23.3 607.2 21.7l1.9-2.7H19v302zm172-160.1l.5 122.4 94.9-122.2c52.2-67.3 95.4-122.5 96-122.7.6-.2 42.2-.3 92.4-.2l91.4.3-99.5 131.2c-54.7 72.1-99.8 131.6-100.1 132.2-.4.5 61.2 81.7 136.8 180.4 75.5 98.7 137.7 180 138 180.6.5.8-30.3 1.1-112.1 1.1H416.5L304 508.1 191.5 352.3l-.3 125.8L191 604H38V38l76.3.2 76.2.3.5 122.4z"/></svg>